<?xml version="1.0" encoding="UTF-8" standalone="no"?>
<!-- Created with Inkscape (http://www.inkscape.org/) -->

<svg
   xmlns:osb="http://www.openswatchbook.org/uri/2009/osb"
   xmlns:dc="http://purl.org/dc/elements/1.1/"
   xmlns:cc="http://creativecommons.org/ns#"
   xmlns:rdf="http://www.w3.org/1999/02/22-rdf-syntax-ns#"
   xmlns:svg="http://www.w3.org/2000/svg"
   xmlns="http://www.w3.org/2000/svg"
   xmlns:xlink="http://www.w3.org/1999/xlink"
   xmlns:sodipodi="http://sodipodi.sourceforge.net/DTD/sodipodi-0.dtd"
   xmlns:inkscape="http://www.inkscape.org/namespaces/inkscape"
   width="20"
   height="20"
   id="svg2"
   version="1.1"
   inkscape:version="0.48.3.1 r9886"
   sodipodi:docname="search_on.svg">
  <defs
     id="defs4">
    <linearGradient
       id="linearGradient3755"
       osb:paint="solid">
      <stop
         style="stop-color:#ffffff;stop-opacity:1;"
         offset="0"
         id="stop3757" />
    </linearGradient>
    <linearGradient
       inkscape:collect="always"
       xlink:href="#linearGradient3755"
       id="linearGradient3759"
       x1="3.4821429"
       y1="1042.2283"
       x2="16.517857"
       y2="1042.2283"
       gradientUnits="userSpaceOnUse" />
  </defs>
  <sodipodi:namedview
     id="base"
     pagecolor="#ffffff"
     bordercolor="#666666"
     borderopacity="1.0"
     inkscape:pageopacity="0.0"
     inkscape:pageshadow="2"
     inkscape:zoom="11.2"
     inkscape:cx="20.094509"
     inkscape:cy="9.7359412"
     inkscape:document-units="px"
     inkscape:current-layer="layer1"
     showgrid="false"
     inkscape:window-width="1022"
     inkscape:window-height="578"
     inkscape:window-x="0"
     inkscape:window-y="20"
     inkscape:window-maximized="0" />
  <metadata
     id="metadata7">
    <rdf:RDF>
      <cc:Work
         rdf:about="">
        <dc:format>image/svg+xml</dc:format>
        <dc:type
           rdf:resource="http://purl.org/dc/dcmitype/StillImage" />
        <dc:title></dc:title>
      </cc:Work>
    </rdf:RDF>
  </metadata>
  <g
     inkscape:label="Ebene 1"
     inkscape:groupmode="layer"
     id="layer1"
     transform="translate(0,-1032.3622)">
    <g
       id="g3898"
       style="fill:#666666">
      <path
         id="path3868"
         d="m 17.75605,1041.8143 c 0.842332,-3.1436 -1.002526,-6.3832 -4.146248,-7.2255 -3.143636,-0.8423 -6.3913185,1.0327 -7.2336508,4.1763 -0.8423325,3.1437 1.0408042,6.3612 4.1843538,7.2036 3.143636,0.8423 6.353039,-1.0106 7.195372,-4.1543 z m -1.388548,-0.372 c -0.638123,2.3815 -3.061298,3.8061 -5.442832,3.1679 -2.3815343,-0.6381 -3.7980053,-3.0915 -3.1598828,-5.4731 0.6381226,-2.3815 3.0914858,-3.798 5.4730208,-3.1598 2.381535,0.6381 3.767818,3.0834 3.129782,5.4649 z"
         style="fill:#666666;fill-opacity:1;fill-rule:nonzero;stroke:none"
         inkscape:connector-curvature="0" />
      <path
         inkscape:connector-curvature="0"
         id="path3873"
         d="m 15.933549,1041.423 c 0.574346,-2.1434 -0.707091,-4.3629 -2.850506,-4.9372 -1.133924,-0.3038 -2.290022,-0.086 -3.2073092,0.4994 0.8595872,-0.4467 1.8835872,-0.5629 2.8930782,-0.2924 2.143329,0.5743 3.402686,2.7556 2.828427,4.8989 -0.276853,1.0331 -0.953952,1.8461 -1.798471,2.3652 1.005586,-0.4931 1.822099,-1.367 2.134781,-2.5339 z"
         style="fill:#666666;fill-opacity:1;fill-rule:nonzero;stroke:none" />
      <g
         transform="matrix(0.70710678,0.70710678,-0.70710678,0.70710678,737.51871,300.70375)"
         id="g3882"
         style="fill:#666666">
        <rect
           style="fill:#666666;fill-opacity:1;fill-rule:nonzero;stroke:none"
           id="rect3878"
           width="2.2321429"
           height="7.1428571"
           x="8.8839283"
           y="1040.755" />
        <path
           sodipodi:type="arc"
           style="fill:#666666;fill-opacity:1;fill-rule:nonzero;stroke:none"
           id="path3880"
           sodipodi:cx="3.5714285"
           sodipodi:cy="15.625"
           sodipodi:rx="1.5178572"
           sodipodi:ry="1.5178572"
           d="m 5.0892857,15.625 c 0,0.838289 -0.6795678,1.517857 -1.5178572,1.517857 -0.8382893,0 -1.5178572,-0.679568 -1.5178572,-1.517857 0,-0.838289 0.6795679,-1.517857 1.5178572,-1.517857 0.8382894,0 1.5178572,0.679568 1.5178572,1.517857 z"
           transform="translate(6.4285715,1032.3622)" />
      </g>
    </g>
  </g>
</svg>
