<?xml version="1.0" encoding="UTF-8" standalone="no"?>
<!-- Created with Inkscape (http://www.inkscape.org/) -->

<svg
   xmlns:osb="http://www.openswatchbook.org/uri/2009/osb"
   xmlns:dc="http://purl.org/dc/elements/1.1/"
   xmlns:cc="http://creativecommons.org/ns#"
   xmlns:rdf="http://www.w3.org/1999/02/22-rdf-syntax-ns#"
   xmlns:svg="http://www.w3.org/2000/svg"
   xmlns="http://www.w3.org/2000/svg"
   xmlns:xlink="http://www.w3.org/1999/xlink"
   xmlns:sodipodi="http://sodipodi.sourceforge.net/DTD/sodipodi-0.dtd"
   xmlns:inkscape="http://www.inkscape.org/namespaces/inkscape"
   width="20"
   height="20"
   id="svg2"
   version="1.1"
   inkscape:version="0.48.5 r10040"
   sodipodi:docname="random.svg">
  <defs
     id="defs4">
    <linearGradient
       id="linearGradient3755"
       osb:paint="solid">
      <stop
         style="stop-color:#ffffff;stop-opacity:1;"
         offset="0"
         id="stop3757" />
    </linearGradient>
    <linearGradient
       inkscape:collect="always"
       xlink:href="#linearGradient3755"
       id="linearGradient3759"
       x1="3.4821429"
       y1="1042.2283"
       x2="16.517857"
       y2="1042.2283"
       gradientUnits="userSpaceOnUse"
       gradientTransform="translate(0,-1032.2282)" />
  </defs>
  <sodipodi:namedview
     id="base"
     pagecolor="#ffffff"
     bordercolor="#666666"
     borderopacity="1.0"
     inkscape:pageopacity="0.0"
     inkscape:pageshadow="2"
     inkscape:zoom="15.839192"
     inkscape:cx="0.7922883"
     inkscape:cy="10.526973"
     inkscape:document-units="px"
     inkscape:current-layer="layer1"
     showgrid="false"
     inkscape:window-width="1022"
     inkscape:window-height="578"
     inkscape:window-x="0"
     inkscape:window-y="20"
     inkscape:window-maximized="0" />
  <metadata
     id="metadata7">
    <rdf:RDF>
      <cc:Work
         rdf:about="">
        <dc:format>image/svg+xml</dc:format>
        <dc:type
           rdf:resource="http://purl.org/dc/dcmitype/StillImage" />
        <dc:title></dc:title>
      </cc:Work>
    </rdf:RDF>
  </metadata>
  <g
     inkscape:label="Ebene 1"
     inkscape:groupmode="layer"
     id="layer1"
     transform="translate(0,-1032.3622)">
    <path
       style="opacity:0.9;fill:#ffffff;fill-opacity:1;stroke:none"
       d="m 5.9442309,1036.652 c 0,0 4.952e-4,0.034 0,0.035 l -3.5221153,0 0,3.451 3.7711538,0 c 1.0481963,0.2178 1.6476349,0.4986 2.0278845,0.8539 -0.5618501,1.6124 -0.822173,3.2962 -2.0634615,3.6288 l -3.7355768,0 0,3.4509 4.1980768,0 c 0.045237,0 0.096636,3e-4 0.1423077,0 1.0789814,-0.011 2.2636121,-0.4926 3.1663461,-2.099 0.034654,-0.061 0.038743,-0.1174 0.071154,-0.1779 0.03496,0.065 0.06913,0.1116 0.106731,0.1779 0.912287,1.6234 2.113978,2.1031 3.201923,2.099 0.03418,-10e-5 0.0728,0 0.106731,0 l 4.162499,0 0,-3.4509 -3.735576,0 c -1.233242,-0.3305 -1.483764,-1.9906 -2.027885,-3.5933 -0.0035,-0.011 0.0035,-0.025 0,-0.035 0.375701,-0.353 0.965794,-0.637 1.992308,-0.8538 l 0.03558,0 3.735576,0 0,-3.4511 -3.522115,0 c -4.95e-4,0 0,-0.035 0,-0.035 0,0 -0.112161,0.022 -0.249038,0.035 -0.541313,0.057 -2.019686,0.3071 -3.806731,1.6366 -1.8221418,-1.3484 -3.3047272,-1.5887 -3.8067306,-1.6366 -0.1119655,-0.011 -0.2490385,-0.035 -0.2490385,-0.035 z"
       id="rect2986"
       inkscape:connector-curvature="0" />
  </g>
</svg>
